<?xml version="1.0" encoding="UTF-8"?><svg id="a" xmlns="http://www.w3.org/2000/svg" viewBox="0 0 323.47 279.07"><path d="M106.53,279.07c-34.37,0-67.11-12.48-92.91-35.6-2.85-2.55-5.62-5.25-8.25-8.02-2.28-2.4-2.18-6.2,.22-8.48,2.41-2.28,6.2-2.18,8.48,.22,2.41,2.54,4.95,5.01,7.55,7.34,52.39,46.92,133.17,42.46,180.08-9.92,46.91-52.38,42.46-133.17-9.92-180.08-25.38-22.73-58.08-34.21-92.1-32.34C65.68,14.07,34.43,29.08,11.71,54.46c-.4,.45-.79,.89-1.19,1.34-2.18,2.5-5.97,2.75-8.47,.57-2.5-2.18-2.75-5.97-.58-8.47,.43-.49,.86-.97,1.29-1.46C27.63,18.69,61.82,2.27,99.03,.22c37.22-2.05,73,10.51,100.76,35.38,57.31,51.33,62.18,139.72,10.85,197.03-24.87,27.76-59.05,44.18-96.27,46.23-2.62,.14-5.24,.22-7.85,.22Z" fill="#d81e19"/><path d="M317.47,142.98H137.86c-3.31,0-6-2.69-6-6s2.69-6,6-6h179.62c3.31,0,6,2.69,6,6s-2.69,6-6,6Z" fill="#fff"/></svg>